<?xml version="1.0" encoding="iso-8859-1"?>
<!-- Uploaded to: SVGRepo, www.svgrepo.com, Transformed by: SVGRepo Tools -->
<svg height="800px" width="800px" version="1.1" id="Layer_1" xmlns="http://www.w3.org/2000/svg" xmlns:xlink="http://www.w3.org/1999/xlink" 
	 viewBox="0 0 512 512" xml:space="preserve">
<path style="fill:#FFDB6C;" d="M151.292,326.199c0,33.267,0,39.494,0,72.76c0,64.932,43.25,104.826,96.6,104.826h5.962h5.962
	c53.351,0,96.6-39.894,96.6-104.826c0-33.267,0-39.493,0-72.76H151.292z M237.676,388.49l-9.638,2.879
	c-21.352,6.379-43.833-5.758-50.213-27.11l9.637-2.879C208.815,355,231.295,367.138,237.676,388.49L237.676,388.49z
	 M279.669,391.369l-9.637-2.879l0,0c6.379-21.352,28.86-33.49,50.212-27.11l9.637,2.879
	C323.502,385.611,301.021,397.748,279.669,391.369z"/>
<path style="fill:#FFB04C;" d="M310.1,326.199c0,15.03,0,24.539,0,33.517c3.295,0.135,6.627,0.676,9.932,1.664l9.637,2.879
	c-3.199,10.706-10.447,19.094-19.57,23.995c0,3.256,0,6.788,0,10.706c0,57.835-34.311,95.806-79.51,103.416
	c5.547,0.934,11.258,1.411,17.09,1.411h5.962h5.962c53.351,0,96.6-39.894,96.6-104.826c0-33.267,0-39.493,0-72.76L310.1,326.199
	L310.1,326.199z"/>
<path style="fill:#FD4DD7;" d="M191.197,31.787c-8.583-3.535-16.119,6.704-10.249,13.895c18.673,22.875,29.381,52.404,28.096,84.23
	c-0.392,9.723-1.872,18.854-4.316,27.362v115.863h97.63V158.838C290.311,94.952,253.229,57.338,191.197,31.787z"/>
<circle style="fill:#FFDB6C;" cx="165.323" cy="25.901" r="17.687"/>
<path style="fill:#FFB04C;" d="M171.346,9.271c-1.822-0.659-3.682-0.989-5.518-1.041c5.837,4.588,8.369,12.556,5.704,19.917
	C168.867,35.509,161.82,40.01,154.4,39.8c1.445,1.136,3.084,2.073,4.906,2.732c9.185,3.325,19.326-1.426,22.65-10.611
	S180.53,12.595,171.346,9.271z"/>
<circle style="fill:#FFDB6C;" cx="33.095" cy="224.067" r="17.687"/>
<path style="fill:#FFB04C;" d="M39.119,207.434c-0.969-0.35-1.95-0.592-2.932-0.768c5.238,4.67,7.406,12.217,4.872,19.22
	c-2.973,8.216-11.4,12.864-19.718,11.379c1.633,1.455,3.556,2.64,5.739,3.43c9.185,3.325,19.326-1.426,22.65-10.61
	C53.054,220.9,48.304,210.759,39.119,207.434z"/>
<circle style="fill:#FFDB6C;" cx="478.71" cy="221.548" r="17.687"/>
<path style="fill:#FFB04C;" d="M469.208,222.66c3.325-9.185,13.466-13.935,22.65-10.611c0.838,0.303,1.625,0.681,2.386,1.092
	c-1.991-3.684-5.273-6.688-9.52-8.226c-9.185-3.325-19.326,1.426-22.65,10.611c-3.022,8.347,0.641,17.465,8.225,21.558
	C467.985,232.802,467.421,227.596,469.208,222.66z"/>
<path style="fill:#FC4C59;" d="M356.727,273.139H152.411c-6.305,0-11.416,5.111-11.416,11.416v30.227
	c0,6.305,5.111,11.416,11.416,11.416h204.317c6.305,0,11.416-5.111,11.416-11.416v-30.227
	C368.144,278.25,363.033,273.139,356.727,273.139z"/>
<path style="fill:#E83A64;" d="M356.727,273.139h-41.909c6.305,0,11.416,5.111,11.416,11.416v30.227
	c0,6.305-5.111,11.416-11.416,11.416h41.909c6.305,0,11.416-5.111,11.416-11.416v-30.227
	C368.144,278.25,363.033,273.139,356.727,273.139z"/>
<path style="fill:#E846AA;" d="M298.534,142.394c-6.754,3.943-13.061,8.576-18.829,13.801c-9.666,8.756-25.137,1.849-25.137-11.193
	l0,0c-9.47-50.217-34.417-84.197-74.782-108.85c-1.402,2.867-1.335,6.473,1.161,9.531c18.673,22.875,29.381,52.404,28.096,84.23
	c-0.392,9.723-1.872,18.854-4.316,27.362v102.027h37.476v2.885h60.154v-103.35C301.285,153.148,300.004,147.677,298.534,142.394z"/>
<path style="fill:#7C54B8;" d="M160.477,273.139h94.372v-21.408c0-61.771-49.393-112.934-111.162-113.461
	c-44.415-0.379-82.921,25.067-101.418,62.226c-3.748,7.528,4.979,15.29,12.005,10.669c11.673-7.677,25.646-12.144,40.663-12.144
	C135.872,199.022,160.477,232.205,160.477,273.139z"/>
<path style="fill:#674799;" d="M160.477,273.139h47.34c0-52.723-26.277-95.697-82.175-96.174
	c-31.779-0.27-60.528,12.683-81.092,33.685c2.589,2.094,6.351,2.735,9.725,0.516c11.674-7.677,25.646-12.144,40.663-12.144
	C135.872,199.022,160.477,232.205,160.477,273.139z"/>
<path style="fill:#3CC247;" d="M348.739,273.139h-94.124v-21.408c0-61.771,49.393-112.934,111.162-113.461
	c44.415-0.379,82.921,25.067,101.418,62.226c3.748,7.528-4.979,15.29-12.005,10.669c-11.673-7.677-25.646-12.144-40.663-12.144
	C373.593,199.022,348.739,232.205,348.739,273.139z"/>
<path style="fill:#2DA85F;" d="M384.395,175.506c-56.403,0.481-90.997,42.082-90.997,97.633h55.342
	c0-40.934,24.854-74.117,65.789-74.117c15.017,0,28.99,4.467,40.663,12.144c3.858,2.537,8.223,1.337,10.76-1.503
	C445.356,188.383,416.411,175.232,384.395,175.506z"/>
<path d="M337.752,366.61c0.623-2.087,0.392-4.338-0.643-6.254s-2.789-3.345-4.877-3.968l-9.637-2.879
	c-25.658-7.666-52.769,6.972-60.435,32.629c-1.299,4.347,1.172,8.922,5.518,10.221l9.637,2.88v0.001
	c4.62,1.38,9.287,2.037,13.879,2.037C312.107,401.277,331.466,387.648,337.752,366.61z M306.488,380.986
	c-7.553,4.078-16.245,4.973-24.468,2.513v0.001l-0.749-0.224c7.423-12.138,22.363-18.285,36.621-14.027l0.758,0.227
	C315.727,374.279,311.569,378.243,306.488,380.986z"/>
<path d="M230.389,399.24C230.389,399.24,230.39,399.24,230.389,399.24l9.638-2.881c4.347-1.299,6.817-5.874,5.518-10.221
	c-7.666-25.657-34.779-40.296-60.432-32.629l-9.638,2.879c-2.087,0.623-3.842,2.051-4.877,3.968s-1.266,4.167-0.642,6.254
	c6.286,21.039,25.643,34.667,46.556,34.667C221.101,401.277,225.77,400.62,230.389,399.24z M189.065,369.473l0.749-0.223
	c14.258-4.265,29.198,1.89,36.621,14.027l-0.749,0.225v-0.001C211.426,387.76,196.488,381.609,189.065,369.473z"/>
<path d="M250.241,473.382h7.224c20.607,0,39.423-8.924,51.622-24.485c2.799-3.57,2.173-8.733-1.396-11.531
	c-3.57-2.798-8.733-2.175-11.531,1.396c-9.197,11.732-22.939,18.193-38.694,18.193h-7.224c-15.988,0-29.858-6.627-39.055-18.66
	c-2.755-3.604-7.911-4.293-11.513-1.538c-3.604,2.755-4.293,7.91-1.539,11.514C210.332,464.229,229.324,473.382,250.241,473.382z"/>
<path d="M502.354,210.558c-2.936-6.265-8.135-11.012-14.639-13.365c-4.412-1.598-9.067-1.96-13.561-1.115
	c-9.913-19.567-24.964-36.062-43.587-47.731c-19.41-12.161-41.858-18.487-64.859-18.289c-20.589,0.175-40.389,5.621-57.828,15.549
	c-6.856-27.704-18.774-50.749-36.253-70.165c-18.688-20.757-43.972-37.521-77.301-51.249c-1.069-0.44-2.155-0.757-3.244-0.978
	c-1.012-9.553-7.317-18.184-16.941-21.669c-13.429-4.859-28.308,2.111-33.169,15.538c-2.355,6.504-2.036,13.537,0.899,19.802
	c2.935,6.266,8.134,11.013,14.639,13.366c2.878,1.043,5.859,1.561,8.831,1.561c2.972,0,5.935-0.527,8.777-1.558
	c0.156,0.207,0.301,0.418,0.467,0.622c18.083,22.153,27.406,50.103,26.252,78.704c-0.205,5.062-0.741,10.015-1.583,14.825
	c-16.588-8.994-35.472-14.179-55.497-14.35c-23.013-0.185-45.45,6.128-64.859,18.289c-18.867,11.821-34.076,28.588-43.981,48.489
	c-0.222,0.447-0.421,0.9-0.6,1.356c-11.037-0.511-21.618,6.136-25.572,17.057c-2.355,6.504-2.035,13.537,0.899,19.802
	s8.134,11.012,14.638,13.365c2.879,1.043,5.86,1.561,8.832,1.561c3.745,0,7.479-0.824,10.971-2.459
	c6.265-2.935,11.012-8.134,13.367-14.639c1.756-4.852,1.96-9.89,0.882-14.579c0.15-0.092,0.304-0.174,0.452-0.272
	c10.738-7.06,23.238-10.793,36.151-10.793c17.045,0,31.511,6.494,41.831,18.777c8.493,10.109,13.728,23.725,15.112,38.94
	c-10.577,0.285-19.099,8.958-19.099,19.602v30.227c0,7.448,4.169,13.94,10.297,17.265v66.911c0,33.237,10.581,61.755,30.601,82.471
	c19.05,19.714,45.406,30.57,74.214,30.57h11.924c28.808,0,55.164-10.856,74.214-30.57c20.018-20.716,30.6-49.233,30.6-82.471
	c0,0,0-12.097,0-16.633v-16.633c0-4.537-3.676-8.214-8.214-8.214s-8.214,3.676-8.214,8.214c0,0,0,12.097,0,16.633v16.633
	c0,56.884-36.346,96.614-88.386,96.614h-11.924c-52.041,0-88.387-39.729-88.387-96.614v-64.546h197.222
	c10.823,0,19.629-8.806,19.629-19.63v-30.227c0-10.617-8.479-19.271-19.018-19.599c1.394-15.192,6.666-28.802,15.218-38.927
	c10.387-12.296,24.9-18.795,41.97-18.795c12.913,0,25.413,3.732,36.15,10.793c0.78,0.513,1.586,0.952,2.411,1.319
	c-0.389,4.48,0.398,9.004,2.356,13.186c2.935,6.265,8.134,11.012,14.639,13.367c2.901,1.049,5.868,1.546,8.789,1.546
	c10.6,0,20.569-6.558,24.38-17.086C505.608,223.857,505.289,216.824,502.354,210.558z M162.101,34.808
	c-3.872-1.402-6.457-5.276-6.238-9.397c0.204-3.819,2.752-7.192,6.354-8.451c7.527-2.633,14.947,5.147,11.88,12.516
	C172.167,34.11,166.848,36.528,162.101,34.808C159.722,33.946,164.48,35.671,162.101,34.808z M33.161,233.542
	c-3.935-0.042-7.553-2.471-8.933-6.155c-1.391-3.713-0.264-8.021,2.772-10.569c3.022-2.536,7.435-2.943,10.851-0.942
	c3.898,2.283,5.697,7.152,4.156,11.411C41.145,229.667,37.639,233.59,33.161,233.542z M94.938,190.808
	c-16.111,0-31.714,4.657-45.13,13.466c-0.057-0.048-0.114-0.095-0.171-0.142c8.557-17.181,21.692-31.656,37.985-41.865
	c16.497-10.336,35.528-15.787,55.096-15.787c0.299,0,0.601,0.001,0.901,0.004c56.201,0.479,102.028,46.701,102.995,103.418
	c-0.134,0.589-0.211,1.199-0.211,1.828v13.195h-78.025c-1.474-19.131-8.101-36.469-19.03-49.48
	C135.804,199.327,116.99,190.808,94.938,190.808z M359.929,284.555v30.227c0,1.765-1.437,3.203-3.202,3.203H152.41
	c-1.765,0-3.202-1.438-3.202-3.203v-30.227c0-1.765,1.437-3.202,3.202-3.202h8.067h94.138h0.234h93.889h7.989
	C358.493,281.354,359.929,282.79,359.929,284.555z M414.528,190.808c-22.061,0-40.911,8.514-54.519,24.621
	c-11.008,13.03-17.682,30.374-19.167,49.496h-77.778V251.73c0-39.96-19.313-75.602-48.988-97.826
	c1.772-7.587,2.846-15.516,3.176-23.661c1.317-32.616-9.315-64.492-29.939-89.755c-0.153-0.188-0.278-0.349-0.208-0.596
	c0.105-0.164,0.223-0.316,0.325-0.483c0.212-0.188,0.381-0.135,0.641-0.03c60.737,25.018,93.38,60.934,105.215,116.028
	c-7.557,5.918-14.483,12.787-20.601,20.539c-2.81,3.561-2.201,8.726,1.36,11.535c3.56,2.81,8.726,2.202,11.535-1.36
	c19.664-24.924,48.921-39.373,80.269-39.639c19.879-0.221,39.246,5.287,55.996,15.782c16.266,10.193,29.384,24.639,37.942,41.782
	c-0.059,0.065-0.111,0.135-0.17,0.199C446.212,195.456,430.623,190.808,414.528,190.808z M477.327,230.887
	c-4.918-0.826-8.45-5.52-7.834-10.49c0.706-5.707,6.593-9.575,12.102-7.933c5.147,1.534,8.046,7.237,6.213,12.305
	C486.029,229.681,481.779,231.635,477.327,230.887z"/>
<circle cx="172.529" cy="299.665" r="7.995"/>
<circle cx="204.66" cy="299.665" r="7.995"/>
<circle cx="236.803" cy="299.665" r="7.995"/>
<circle cx="268.945" cy="299.665" r="7.995"/>
<circle cx="301.077" cy="299.665" r="7.995"/>
<circle cx="333.22" cy="299.665" r="7.995"/>
<g>
</g>
<g>
</g>
<g>
</g>
<g>
</g>
<g>
</g>
<g>
</g>
<g>
</g>
<g>
</g>
<g>
</g>
<g>
</g>
<g>
</g>
<g>
</g>
<g>
</g>
<g>
</g>
<g>
</g>
</svg>
